# xmcd
#
# Track frame offsets:
#	182
#	13800
#	31160
#	44902
#	63030
#	79647
#	102555
#	117397
#	133140
#	146697
#	157780
#	169825
#	185472
#	201605
#	218057
#	236367
#	251002
#	266682
#	281205
#	299435
#
# Disc length: 4197 seconds
#
# Revision: 1
# Processed by: cddbd v1.4PL0 Copyright (c) Steve Scherf et al.
# Submitted via: audiograbber 1.82.02
#
DISCID=35106314
DTITLE=Various Artist - All Star Country Disc 2
DYEAR=1988
DGENRE=Country
TTITLE0=Lee Greenwood - Heart's Aren't Made To Break (They're Made To Love)
TTITLE1=Judy Rodman - Until I Met You
TTITLE2=John Schneider - At The Sound Of The Tone
TTITLE3=The Whites - Give Me Back Back That Old Familiar Feeling
TTITLE4=Eddie Rabbitt - You Can't Run From Love
TTITLE5=Dan Seals - You Still Move Me
TTITLE6=Crystal Gayle - I Don't Wanna Lose Your Love
TTITLE7=Girls Next Door - Slow Boat To China
TTITLE8=Mel McDaniel - Baby's Got Her Blue Jeans On
TTITLE9=Conway Twitty - Desperado Love
TTITLE10=Vern Gosdin - I Can Tell By The Way You Dance (You're Gonna Love Me To
TTITLE10=night)
TTITLE11=Crystal Gayle and Gary Morris - Makin' Up For Lost Time
TTITLE12=Glen Campbell - A Lady Like You
TTITLE13=Kathy Mattea - Love At The Five And Dime
TTITLE14=Steve Wariner - You Can Dream Of Me
TTITLE15=Barbara Mandrell and Lee Greenwood - To Me
TTITLE16=Schuyler, Knobloch and Overstreet - Baby's Got A New Baby
TTITLE17=Tanya Tucker - Just Another Love
TTITLE18=T. Graham Brown - Don't Go To Strangers
TTITLE19=Michael Martin Murphey - A Long Line Of Love
EXTD=
EXTT0=
EXTT1=
EXTT2=
EXTT3=
EXTT4=
EXTT5=
EXTT6=
EXTT7=
EXTT8=
EXTT9=
EXTT10=
EXTT11=
EXTT12=
EXTT13=
EXTT14=
EXTT15=
EXTT16=
EXTT17=
EXTT18=
EXTT19=
PLAYORDER=
